<?xml version="1.0" standalone="no"?>
<!DOCTYPE svg PUBLIC "-//W3C//DTD SVG 20010904//EN"
 "http://www.w3.org/TR/2001/REC-SVG-20010904/DTD/svg10.dtd">
<svg version="1.0" xmlns="http://www.w3.org/2000/svg"
 width="788.000000pt" height="788.000000pt" viewBox="0 0 788.000000 788.000000"
 preserveAspectRatio="xMidYMid meet">

<g transform="translate(0.000000,788.000000) scale(0.100000,-0.100000)"
fill="#000000" stroke="none">
<path d="M385 7524 c-11 -3 -37 -10 -58 -15 -42 -11 -77 -40 -77 -64 0 -12 15
-15 75 -15 46 0 75 4 75 11 0 20 70 39 145 39 89 0 145 -19 145 -49 0 -31 -25
-39 -201 -66 -173 -27 -218 -44 -233 -87 -33 -94 75 -135 333 -125 135 5 190
16 224 45 14 13 17 34 17 142 0 141 -2 145 -70 170 -35 13 -336 24 -375 14z
m286 -298 c-17 -16 -37 -21 -108 -24 -101 -5 -163 13 -163 46 0 37 31 48 205
75 l80 12 3 -44 c2 -34 -2 -49 -17 -65z"/>
<path d="M3930 5200 l0 -1750 -500 0 c-327 0 -500 -3 -500 -10 0 -7 593 -10
1760 -10 1167 0 1760 3 1760 10 0 7 -423 10 -1250 10 l-1250 0 0 1740 0 1740
790 0 790 0 0 -149 c0 -147 0 -150 -22 -156 -78 -21 -104 -33 -138 -67 -53
-51 -73 -99 -73 -178 0 -77 19 -125 68 -175 50 -49 98 -68 175 -68 77 0 125
19 175 68 49 50 68 98 68 175 0 79 -20 127 -73 178 -34 34 -60 46 -137 67 -23
6 -23 9 -23 166 l0 159 -810 0 -810 0 0 -1750z m1683 1398 c54 -16 129 -91
145 -144 27 -91 8 -166 -57 -233 -94 -96 -228 -96 -322 0 -94 96 -93 227 2
320 67 65 142 84 232 57z"/>
<path d="M5335 6004 c-217 -115 -211 -111 -202 -120 3 -3 92 39 198 95 106 56
194 101 195 101 2 0 4 -368 4 -817 l0 -818 -152 -227 c-83 -126 -148 -231
-144 -235 9 -10 9 -10 166 226 l142 213 145 -218 c166 -250 151 -229 159 -222
3 4 -62 108 -145 232 l-151 226 0 815 c0 448 2 815 5 815 3 0 91 -43 196 -96
105 -52 194 -93 197 -90 8 9 13 6 -198 111 -107 54 -196 101 -198 106 -2 5 -7
9 -10 9 -4 0 -97 -48 -207 -106z"/>
<path d="M2878 2390 c-22 -13 -40 -72 -33 -103 16 -62 95 -78 124 -25 19 33 4
51 -16 21 -28 -41 -83 -24 -83 25 0 57 56 87 80 42 13 -24 30 -26 30 -5 0 40
-63 68 -102 45z"/>
<path d="M2830 2040 c0 -6 60 -10 160 -10 100 0 160 4 160 10 0 6 -60 10 -160
10 -100 0 -160 -4 -160 -10z"/>
<path d="M4830 2040 c0 -6 60 -10 160 -10 100 0 160 4 160 10 0 6 -60 10 -160
10 -100 0 -160 -4 -160 -10z"/>
<path d="M6830 2040 c0 -6 60 -10 160 -10 100 0 160 4 160 10 0 6 -60 10 -160
10 -100 0 -160 -4 -160 -10z"/>
<path d="M1966 1328 c-14 -40 -26 -79 -26 -85 0 -22 16 -14 28 12 7 15 20 25
32 25 12 0 25 -10 32 -25 15 -32 42 -34 32 -2 -21 67 -53 142 -61 144 -6 2
-22 -29 -37 -69z m44 -8 c0 -5 -4 -10 -10 -10 -5 0 -10 5 -10 10 0 6 5 10 10
10 6 0 10 -4 10 -10z"/>
<path d="M2478 1390 c-9 -6 -22 -25 -28 -44 -21 -66 12 -120 72 -114 27 2 36
10 51 40 16 32 17 43 7 73 -16 50 -60 69 -102 45z m74 -45 c16 -35 0 -79 -30
-83 -45 -7 -67 41 -42 89 16 28 58 25 72 -6z"/>
<path d="M2957 1393 c-4 -3 -7 -42 -7 -85 l0 -78 51 0 c57 0 66 23 11 28 -24
2 -32 8 -32 23 0 15 7 19 36 19 45 0 42 24 -4 28 -24 2 -32 8 -32 23 0 15 7
19 35 19 24 0 35 5 35 15 0 11 -11 15 -43 15 -24 0 -47 -3 -50 -7z"/>
<path d="M3510 1335 c0 -70 -15 -90 -45 -65 -20 17 -32 4 -19 -18 14 -21 50
-27 70 -12 17 15 21 160 4 160 -6 0 -10 -28 -10 -65z"/>
<path d="M3956 1393 c-3 -3 -6 -42 -6 -85 0 -61 3 -78 14 -78 11 0 16 15 18
52 l3 53 38 -53 c21 -28 43 -52 48 -52 5 0 9 38 9 85 0 50 -4 85 -10 85 -5 0
-10 -22 -10 -50 0 -27 -4 -50 -8 -50 -5 0 -23 20 -41 45 -35 49 -45 58 -55 48z"/>
<path d="M4443 1372 c11 -55 49 -143 60 -139 13 4 67 148 60 160 -9 14 -22 -4
-38 -53 -9 -28 -20 -48 -25 -45 -5 3 -16 28 -25 55 -18 53 -41 70 -32 22z"/>
<path d="M4957 1393 c-4 -3 -7 -42 -7 -85 0 -63 3 -78 15 -78 10 0 15 11 16
38 l1 37 16 -37 c21 -46 35 -48 53 -5 l14 32 5 -29 c3 -16 11 -31 18 -34 9 -3
12 18 12 83 0 100 -11 107 -44 27 -11 -29 -24 -52 -29 -52 -4 0 -18 25 -32 55
-25 57 -27 60 -38 48z"/>
<path d="M5457 1393 c-4 -3 -7 -42 -7 -85 0 -63 3 -78 15 -78 10 0 15 11 15
35 0 32 2 35 30 35 20 0 30 5 30 15 0 10 -10 15 -30 15 -23 0 -30 4 -30 20 0
16 7 20 35 20 24 0 35 5 35 15 0 11 -11 15 -43 15 -24 0 -47 -3 -50 -7z"/>
<path d="M5956 1393 c-3 -3 -6 -42 -6 -85 0 -63 3 -78 15 -78 10 0 15 10 15
30 0 17 4 30 8 30 5 0 18 -13 30 -30 23 -30 42 -39 42 -19 0 6 -11 25 -25 41
l-25 30 30 38 c40 51 21 61 -24 13 l-36 -38 0 32 c0 31 -11 48 -24 36z"/>
<path d="M6458 1394 c-5 -4 -8 -43 -8 -86 l0 -78 40 0 c60 0 94 37 87 92 -3
22 -12 47 -20 55 -16 16 -88 29 -99 17z m80 -36 c7 -7 12 -26 12 -43 0 -37
-16 -55 -47 -55 -21 0 -23 4 -23 55 0 51 2 55 23 55 13 0 28 -5 35 -12z"/>
<path d="M3857 393 c-4 -3 -7 -42 -7 -85 0 -63 3 -78 15 -78 10 0 15 10 15 30
0 25 4 30 23 30 27 0 57 28 57 53 0 38 -78 76 -103 50z m68 -48 c0 -13 -8 -21
-22 -23 -19 -3 -23 1 -23 23 0 22 4 26 23 23 14 -2 22 -10 22 -23z"/>
<path d="M4220 381 c0 -15 -6 -21 -23 -21 -32 0 -57 -30 -57 -68 0 -43 24 -64
69 -60 l36 3 0 79 c0 55 -4 81 -12 84 -8 2 -13 -5 -13 -17z m-5 -86 c0 -23 -5
-31 -22 -33 -20 -3 -23 1 -23 33 0 32 3 36 23 33 17 -2 22 -10 22 -33z"/>
<path d="M4410 364 c-10 -18 -11 -27 -3 -32 7 -4 13 -28 15 -52 2 -38 7 -46
26 -48 25 -4 30 15 7 24 -17 7 -21 74 -5 74 6 0 10 7 10 15 0 8 -4 15 -10 15
-5 0 -10 7 -10 15 0 23 -15 18 -30 -11z"/>
<path d="M3976 338 c-32 -46 -7 -108 43 -108 29 0 60 25 47 37 -4 4 -15 2 -25
-4 -15 -9 -23 -9 -37 2 -17 13 -15 14 24 15 38 0 42 2 42 24 0 53 -65 76 -94
34z m64 -18 c0 -5 -12 -10 -26 -10 -14 0 -23 4 -19 10 3 6 15 10 26 10 10 0
19 -4 19 -10z"/>
<path d="M4080 295 c0 -51 3 -65 15 -65 11 0 15 12 15 49 0 41 3 50 21 54 29
8 14 27 -22 27 l-29 0 0 -65z"/>
<path d="M4270 295 c0 -37 4 -65 10 -65 6 0 10 28 10 65 0 37 -4 65 -10 65 -6
0 -10 -28 -10 -65z"/>
<path d="M4317 353 c-18 -18 -6 -53 24 -69 24 -12 29 -18 18 -25 -8 -5 -20 -2
-30 7 -20 18 -32 7 -18 -17 14 -27 65 -25 79 2 13 24 0 45 -40 62 -21 8 -22
11 -7 14 10 3 24 0 31 -6 18 -15 27 -2 15 20 -9 19 -58 27 -72 12z"/>
<path d="M4486 338 c-34 -48 -8 -108 46 -108 29 0 56 24 39 35 -6 3 -19 1 -30
-4 -14 -8 -22 -7 -31 4 -11 13 -6 15 29 15 36 0 41 3 41 23 0 51 -66 75 -94
35z m59 -18 c4 -6 -5 -10 -20 -10 -15 0 -24 4 -20 10 3 6 12 10 20 10 8 0 17
-4 20 -10z"/>
</g>
</svg>
